#!OML:ASF F:\VICON\USERDATA\INSTALL\rory3\rory3.ASF
:FULLY-SPECIFIED
:DEGREES
153
root 0.490351 18.0599 0.0226584 -1.67147 -1.17478 -0.515765
lowerback 9.75 -1.09361 -0.427547
upperback 0.443789 -1.37268 2.5136
thorax -4.93611 -0.641204 3.05522
lowerneck -16.9516 -2.57061 -1.92262
upperneck 21.6187 -2.9449 -0.510584
head 9.66868 -1.58894 -0.24681
rclavicle 2.29099e-014 -4.21423e-014
rhumerus -31.1266 -23.7404 -75.3709
rradius 21.9061
rwrist 8.37612
rhand -15.7887 24.3372
rfingers 7.12502
rthumb 10.404 -5.38536
lclavicle 2.29099e-014 -4.21423e-014
lhumerus -25.6686 -0.947486 83.8268
lradius 30.5375
lwrist 6.94961
lhand -27.828 28.0808
lfingers 7.12502
lthumb -1.21976 58.057
rfemur -23.7419 3.65186 23.0702
rtibia 27.3833
rfoot -5.60424 -1.93381
rtoes -0.380924
lfemur 6.82212 -1.9114 -22.5498
ltibia 43.6045
lfoot 10.2896 -9.60167
ltoes -14.826
154
root 0.469422 18.0854 0.205912 -1.71633 -1.20732 -0.924622
lowerback 9.76953 -1.06818 0.0148116
upperback 0.492948 -1.28687 2.5825
thorax -4.90854 -0.608587 2.86518
lowerneck -16.97 -2.56514 -1.72695
upperneck 21.562 -2.9606 -0.633015
head 9.64646 -1.59401 -0.323424
rclavicle -1.38652e-014 1.90833e-014
rhumerus -31.0848 -23.9033 -75.3506
rradius 21.8953
rwrist 8.66478
rhand -16.4938 23.9928
rfingers 7.12502
rthumb 9.7238 -5.76269
lclavicle -1.38652e-014 1.90833e-014
lhumerus -25.8225 -1.07669 83.9711
lradius 30.5702
lwrist 6.52687
lhand -26.9027 32.5526
lfingers 7.12502
lthumb -0.326093 62.5321
rfemur -23.016 3.61116 23.6954
rtibia 27.296
rfoot -5.00739 -1.72026
rtoes 0.333895
lfemur 5.43743 -1.8201 -21.9345
ltibia 46.1098
lfoot 11.6633 -10.0459
ltoes -12.1039
155
root 0.448095 18.1234 0.392573 -1.80212 -1.32891 -1.31722
lowerback 9.89925 -1.02175 0.403485
upperback 0.436846 -1.17233 2.69168
thorax -5.05132 -0.558044 2.7492
lowerneck -16.8942 -2.61326 -1.76168
upperneck 21.6366 -3.03521 -0.573001
head 9.66072 -1.62485 -0.306388
rclavicle 1.32192e-014 -4.37326e-014
rhumerus -31.0074 -23.6643 -75.3165
rradius 21.7342
rwrist 8.77159
rhand -17.498 22.6266
rfingers 7.12502
rthumb 8.75476 -7.17185
lclavicle 1.32192e-014 -4.37326e-014
lhumerus -26.0707 -1.46735 84.255
lradius 29.934
lwrist 7.31574
lhand -27.3926 28.6325
lfingers 7.12502
lthumb -0.799262 58.6108
rfemur -22.1349 3.754 24.2904
rtibia 27.0994
rfoot -4.60402 -2.12035
rtoes 1.38761
lfemur 4.1141 -1.70587 -21.3839
ltibia 48.5332
lfoot 14.4755 -11.7289
ltoes -7.00459
156
root 0.421704 18.1598 0.577094 -1.80244 -1.5449 -1.86208
lowerback 9.93449 -0.915568 0.877982
upperback 0.382944 -0.968098 2.82431
thorax -5.14242 -0.466032 2.59378
lowerneck -16.8788 -2.69389 -1.77227
upperneck 21.6494 -3.17617 -0.44778
head 9.66548 -1.67658 -0.279742
rclavicle -2.06239e-014 3.26007e-014
rhumerus -30.9363 -23.4162 -75.3966
rradius 21.6978
rwrist 8.70778
rhand -17.5605 23.4618
rfingers 7.12502
rthumb 8.69452 -6.33912
lclavicle -2.06239e-014 3.26007e-014
lhumerus -26.438 -1.93445 84.5434
lradius 29.4871
lwrist 7.85042
lhand -26.2848 24.809
lfingers 7.12502
lthumb 0.270647 54.7886
rfemur -21.3209 3.98897 25.108
rtibia 26.8818
rfoot -4.42614 -2.45682
rtoes 2.76006
lfemur 2.72005 -1.49239 -20.6288
ltibia 50.8622
lfoot 16.3942 -13.3998
ltoes -7.62135
157
root 0.398437 18.1799 0.761886 -1.85295 -1.77206 -2.40255
lowerback 9.87596 -0.844417 1.34034
upperback 0.479202 -0.818565 2.96685
thorax -5.01907 -0.402295 2.45795
lowerneck -16.9378 -2.71598 -1.80642
upperneck 21.5691 -3.22829 -0.314014
head 9.65148 -1.68771 -0.234664
rclavicle -2.17172e-014 3.49861e-014
rhumerus -30.6476 -22.846 -75.709
rradius 21.8941
rwrist 8.70951
rhand -17.3485 24.755
rfingers 7.12502
rthumb 8.89902 -5.03731
lclavicle -2.17172e-014 3.49861e-014
lhumerus -26.756 -2.46406 84.8735
lradius 29.1303
lwrist 8.6434
lhand -24.8224 19.6084
lfingers 7.12502
lthumb 1.68312 49.5815
rfemur -20.4917 4.1824 25.9239
rtibia 26.7197
rfoot -4.47892 -2.34437
rtoes 2.83743
lfemur 1.37848 -1.15968 -19.8623
ltibia 53.1228
lfoot 15.9581 -13.1868
ltoes -7.48994
158
root 0.375548 18.1946 0.94548 -2.06251 -1.83939 -2.63375
lowerback 9.96056 -0.769245 1.52689
upperback 0.608372 -0.697732 2.99246
thorax -4.93701 -0.347007 2.36201
lowerneck -16.8047 -2.79154 -1.90854
upperneck 21.4448 -3.37089 -0.0547971
head 9.59089 -1.73261 -0.143575
rclavicle 1.31198e-014 -2.70347e-014
rhumerus -30.393 -22.4141 -75.9727
rradius 21.9714
rwrist 8.35914
rhand -16.6299 23.7279
rfingers 7.12502
rthumb 9.59245 -6.03371
lclavicle 1.31198e-014 -2.70347e-014
lhumerus -26.8771 -3.1511 85.1381
lradius 29.5875
lwrist 7.2331
lhand -25.4023 25.0757
lfingers 7.12502
lthumb 1.12301 55.0525
rfemur -19.5785 4.2496 26.381
rtibia 26.6988
rfoot -4.66936 -2.2835
rtoes 3.51384
lfemur 0.180341 -0.950633 -19.4642
ltibia 55.2902
lfoot 13.4623 -11.5294
ltoes -6.23115
159
root 0.351642 18.2067 1.11445 -2.16017 -1.79189 -2.82375
lowerback 10.0173 -0.719289 1.68634
upperback 0.666272 -0.61393 2.97843
thorax -4.91247 -0.309331 2.24569
lowerneck -16.5646 -2.86243 -1.802
upperneck 21.2944 -3.51329 -0.011347
head 9.49332 -1.786 -0.159634
rclavicle 7.00716e-015 -3.73715e-014
rhumerus -30.1601 -22.6768 -75.9928
rradius 21.5283
rwrist 8.36545
rhand -15.6604 23.6054
rfingers 7.12502
rthumb 10.5278 -6.11096
lclavicle 7.00716e-015 -3.73715e-014
lhumerus -26.8286 -3.80663 85.3309
lradius 29.268
lwrist 6.43108
lhand -26.9033 25.3856
lfingers 7.12502
lthumb -0.326733 55.3651
rfemur -18.9227 4.42959 26.7406
rtibia 26.8111
rfoot -4.81174 -2.64251
rtoes 4.51572
lfemur -1.1976 -0.876515 -19.1063
ltibia 57.3342
lfoot 11.7459 -10.6741
ltoes -8.44918
160
root 0.334325 18.2135 1.28466 -2.26998 -1.86693 -2.92701
lowerback 10.049 -0.664375 1.83338
upperback 0.664609 -0.524262 2.95432
thorax -4.93583 -0.268477 2.12548
lowerneck -16.3232 -2.87957 -1.75471
upperneck 21.3116 -3.5481 -0.0417408
head 9.45328 -1.80281 -0.178769
rclavicle 2.18663e-015 -1.03368e-014
rhumerus -29.989 -23.1471 -75.8523
rradius 21.0639
rwrist 9.25721
rhand -15.3619 24.0863
rfingers 7.12502
rthumb 10.8157 -5.61521
lclavicle 2.18663e-015 -1.03368e-014
lhumerus -26.9323 -3.99205 85.4534
lradius 28.6391
lwrist 5.86233
lhand -28.5192 20.2533
lfingers 7.12502
lthumb -1.88733 50.2247
rfemur -18.272 4.75283 26.9741
rtibia 26.971
rfoot -4.70685 -2.88495
rtoes 6.79654
lfemur -2.60057 -0.678394 -18.8831
ltibia 59.2149
lfoot 12.8974 -10.6455
ltoes -13.5394
161
root 0.316267 18.2251 1.45825 -2.39188 -2.01839 -3.03464
lowerback 10.1176 -0.563455 1.98845
upperback 0.658038 -0.370956 2.92642
thorax -4.98592 -0.196517 1.98833
lowerneck -16.1314 -2.88862 -1.86599
upperneck 21.3371 -3.58771 0.175371
head 9.43372 -1.80636 -0.0879201
rclavicle -5.93869e-015 -1.03368e-014
rhumerus -29.7088 -23.3893 -75.8369
rradius 20.6381
rwrist 10.4817
rhand -16.1518 23.1962
rfingers 7.12502
rthumb 10.0537 -6.54364
lclavicle -5.93869e-015 -1.03368e-014
lhumerus -27.0788 -4.08919 85.5758
lradius 28.2044
lwrist 5.22137
lhand -30.6521 15.5208
lfingers 7.12502
lthumb -3.94717 45.464
rfemur -17.5654 5.44257 27.2032
rtibia 27.1238
rfoot -4.72188 -3.05074
rtoes 9.56188
lfemur -4.01249 -0.367288 -18.628
ltibia 60.9042
lfoot 12.8483 -10.2028
ltoes -13.1891
162
root 0.294967 18.2337 1.63227 -2.46656 -2.12694 -3.28894
lowerback 10.0846 -0.467047 2.18438
upperback 0.739857 -0.223308 2.95968
thorax -4.88529 -0.127367 1.89011
lowerneck -16.1695 -2.91232 -1.93281
upperneck 21.2884 -3.64978 0.377699
head 9.42995 -1.81742 -0.0153699
rclavicle 2.70844e-015 -3.73715e-014
rhumerus -29.272 -23.1852 -76.0937
rradius 20.5945
rwrist 10.8786
rhand -16.7467 21.845
rfingers 7.12502
rthumb 9.4797 -7.92181
lclavicle 2.70844e-015 -3.73715e-014
lhumerus -27.316 -4.04949 85.6497
lradius 28.1954
lwrist 4.3505
lhand -29.867 18.7359
lfingers 7.12502
lthumb -3.189 48.6918
rfemur -16.9437 6.01253 27.6192
rtibia 27.3041
rfoot -5.47798 -3.14364
rtoes 9.32555
lfemur -5.30627 -0.00689628 -18.1379
ltibia 62.4504
lfoot 10.7467 -9.52334
ltoes -10.6661
163
root 0.274705 18.2372 1.8009 -2.57716 -2.18929 -3.41303
lowerback 10.1891 -0.367747 2.30374
upperback 0.803944 -0.0789382 2.89633
thorax -4.87923 -0.0591716 1.73649
lowerneck -16.2753 -2.98243 -1.83757
upperneck 21.4046 -3.78166 0.417363
head 9.49053 -1.86554 -0.0371863
rclavicle 1.78906e-015 4.37326e-015
rhumerus -28.961 -23.3951 -76.2493
rradius 20.6097
rwrist 11.3766
rhand -16.9512 22.4897
rfingers 7.12502
rthumb 9.28244 -7.28592
lclavicle 1.78906e-015 4.37326e-015
lhumerus -27.5042 -4.07709 85.6507
lradius 28.0406
lwrist 3.54939
lhand -29.0293 20.4359
lfingers 7.12502
lthumb -2.37998 50.4023
rfemur -16.3195 6.29684 27.916
rtibia 27.4937
rfoot -6.44992 -3.37899
rtoes 7.75577
lfemur -6.37663 0.205791 -17.8528
ltibia 63.8315
lfoot 7.42013 -8.7037
ltoes -9.08613
164
root 0.257655 18.2438 1.95799 -2.63299 -2.0187 -3.57996
lowerback 10.5381 -0.405723 2.46881
upperback 0.642826 -0.0876431 2.90572
thorax -5.24398 -0.0685484 1.66077
lowerneck -16.1531 -3.01924 -1.88671
upperneck 21.7484 -3.82859 0.419747
head 9.59031 -1.89099 -0.035488
rclavicle -3.10601e-015 1.55052e-014
rhumerus -28.8949 -23.2169 -76.3159
rradius 20.5307
rwrist 11.6912
rhand -17.281 23.3813
rfingers 7.12502
rthumb 8.96421 -6.40825
lclavicle -3.10601e-015 1.55052e-014
lhumerus -27.9749 -4.01914 85.7307
lradius 27.8002
lwrist 3.13555
lhand -33.0254 9.20077
lfingers 7.12502
lthumb -6.23871 39.0889
rfemur -15.7575 6.3583 28.215
rtibia 27.6572
rfoot -6.82825 -3.88819
rtoes 8.58777
lfemur -7.72536 0.180248 -17.5675
ltibia 65.0589
lfoot 4.53096 -8.07303
ltoes -6.56528
